<svg class="ml-6" width="24" height="26" viewBox="0 0 24 28" fill="none" xmlns="http://www.w3.org/2000/svg">
    <path
        d="M20.1203 14.8903C20.1485 12.7288 21.3204 10.6836 23.1797 9.55149C22.0068 7.89236 20.0422 6.84043 17.9983 6.77709C15.8182 6.55045 13.7048 8.06913 12.5939 8.06913C11.4615 8.06913 9.7511 6.79959 7.90927 6.83712C5.50853 6.91395 3.27044 8.26584 2.10243 10.3447C-0.408327 14.6502 1.46447 20.9778 3.86957 24.458C5.07289 26.1622 6.47923 28.0658 8.31939 27.9983C10.1201 27.9243 10.7926 26.861 12.9662 26.861C15.1197 26.861 15.7507 27.9983 17.6282 27.9553C19.5604 27.9243 20.7778 26.2436 21.9389 24.5233C22.8035 23.309 23.4688 21.967 23.9102 20.5469C21.6394 19.5956 20.123 17.3323 20.1203 14.8903Z"
        fill="white" />
    <path
        d="M16.574 4.48832C17.6276 3.23566 18.1466 1.62558 18.0209 0C16.4114 0.167441 14.9246 0.929367 13.8568 2.13397C12.8126 3.31092 12.2693 4.89268 12.372 6.45612C13.9821 6.47254 15.5651 5.73127 16.574 4.48832Z"
        fill="white" />
</svg>