<svg width="110" height="40" viewBox="0 0 110 40" fill="none" xmlns="http://www.w3.org/2000/svg">
<path fill-rule="evenodd" clip-rule="evenodd" d="M15.5944 0.553795C16.8508 -0.184598 18.4047 -0.184598 19.6611 0.553795L33.2167 8.48877C34.4731 9.22717 35.2555 10.5937 35.2555 12.0595V27.9405C35.2555 29.4173 34.4841 30.7839 33.2167 31.5112L19.6611 39.4462C18.4047 40.1846 16.8508 40.1846 15.5944 39.4462L2.03885 31.5222C0.782477 30.7839 0 29.4173 0 27.9515V12.0705C0 10.5937 0.771456 9.22717 2.03885 8.49979L15.5944 0.553795Z" fill="url(#paint0_linear_1199_11547)"/>
<path d="M14.1389 17.816C14.1109 17.8999 14.1016 17.9839 14.1016 18.0678V21.4248C14.1016 21.7419 14.2694 22.0309 14.5305 22.1801L17.3933 23.8586C17.5332 23.9426 17.6824 23.9799 17.8409 23.9705V19.9701L14.1389 17.8067V17.816Z" fill="white"/>
<path d="M14.5305 24.8005C14.4186 24.7352 14.3254 24.6419 14.2601 24.5487C14.1575 24.6886 14.1016 24.8657 14.1016 25.0522V31.8968C14.1016 32.2139 14.2694 32.503 14.5305 32.6522L17.3933 34.3307C17.5332 34.4146 17.6824 34.4519 17.8409 34.4426V26.5909C17.6917 26.5909 17.5332 26.5536 17.3933 26.479L14.5305 24.8005Z" fill="white"/>
<path d="M17.8409 23.9799C17.9808 23.9799 18.13 23.9426 18.2605 23.868L21.1233 22.1894C21.3938 22.0309 21.5523 21.7418 21.5523 21.4341V18.0771C21.5523 17.9932 21.543 17.9186 21.515 17.844L17.8316 19.9887V23.9892L17.8409 23.9799Z" fill="#CBC4C4"/>
<path d="M18.2603 34.34L21.1231 32.6615C21.3935 32.503 21.5521 32.2139 21.5521 31.9062V25.0616C21.5521 24.8751 21.4961 24.6979 21.3935 24.558C21.3189 24.6606 21.2257 24.7445 21.1231 24.8098L18.2603 26.4883C18.1298 26.5629 17.9899 26.6002 17.8407 26.6002V34.4519C17.9806 34.4519 18.1298 34.4146 18.2603 34.34Z" fill="#CBC4C4"/>
<path d="M21.5234 17.8253C21.4675 17.6108 21.3276 17.4243 21.1225 17.3031L18.2597 15.6246C18.1291 15.55 17.9892 15.5127 17.84 15.5127C17.6908 15.5127 17.5323 15.55 17.3924 15.6246L14.5296 17.3031C14.3338 17.415 14.1948 17.6015 14.1389 17.816L17.8407 19.9794L21.5234 17.8346V17.8253Z" fill="#D6D6D6"/>
<path d="M61.4759 23.776H56.3519V31H53.6079V10.756H61.4759C65.4519 10.756 67.9999 13.36 67.9999 17.252C67.9999 21.032 65.4239 23.776 61.4759 23.776ZM60.9999 13.22H56.3519V21.312H60.8879C63.6039 21.312 65.1159 19.716 65.1159 17.224C65.1159 14.676 63.5759 13.22 60.9999 13.22ZM74.117 31.336C71.177 31.336 69.441 29.684 69.441 27.192C69.441 24.672 71.317 23.104 74.537 22.852L78.849 22.516V22.124C78.849 19.828 77.477 19.016 75.629 19.016C73.417 19.016 72.157 19.996 72.157 21.648H69.861C69.861 18.792 72.213 16.916 75.741 16.916C79.129 16.916 81.425 18.708 81.425 22.404V31H79.185L78.905 28.788C78.205 30.356 76.329 31.336 74.117 31.336ZM74.873 29.292C77.365 29.292 78.877 27.668 78.877 25.092V24.364L75.377 24.644C73.053 24.868 72.101 25.764 72.101 27.108C72.101 28.564 73.165 29.292 74.873 29.292ZM83.95 27.024H86.47C86.47 28.424 87.534 29.264 89.27 29.264C91.118 29.264 92.182 28.508 92.182 27.248C92.182 26.324 91.734 25.764 90.306 25.4L87.898 24.84C85.462 24.252 84.314 23.048 84.314 21.032C84.314 18.512 86.442 16.916 89.466 16.916C92.462 16.916 94.422 18.596 94.478 21.2H91.958C91.902 19.828 90.978 18.96 89.382 18.96C87.73 18.96 86.806 19.688 86.806 20.948C86.806 21.872 87.478 22.488 88.822 22.824L91.23 23.412C93.554 23.972 94.702 25.036 94.702 27.08C94.702 29.684 92.462 31.336 89.214 31.336C85.994 31.336 83.95 29.628 83.95 27.024ZM96.5008 27.024H99.0208C99.0208 28.424 100.085 29.264 101.821 29.264C103.669 29.264 104.733 28.508 104.733 27.248C104.733 26.324 104.285 25.764 102.857 25.4L100.449 24.84C98.0128 24.252 96.8648 23.048 96.8648 21.032C96.8648 18.512 98.9928 16.916 102.017 16.916C105.013 16.916 106.973 18.596 107.029 21.2H104.509C104.453 19.828 103.529 18.96 101.933 18.96C100.281 18.96 99.3568 19.688 99.3568 20.948C99.3568 21.872 100.029 22.488 101.373 22.824L103.781 23.412C106.105 23.972 107.253 25.036 107.253 27.08C107.253 29.684 105.013 31.336 101.765 31.336C98.5448 31.336 96.5008 29.628 96.5008 27.024Z" fill="black"/>
<defs>
<linearGradient id="paint0_linear_1199_11547" x1="17.6278" y1="0" x2="17.6278" y2="40" gradientUnits="userSpaceOnUse">
<stop stop-color="#FFD404"/>
<stop offset="1" stop-color="#FF745E"/>
</linearGradient>
</defs>
</svg>
