<svg width="111" height="40" viewBox="0 0 111 40" fill="none" xmlns="http://www.w3.org/2000/svg">
<path d="M15.0842 17.816C15.0562 17.8999 15.0469 17.9839 15.0469 18.0678V21.4248C15.0469 21.7419 15.2147 22.0309 15.4758 22.1801L18.3386 23.8586C18.4785 23.9426 18.6277 23.9799 18.7862 23.9705V19.9701L15.0842 17.8067V17.816Z" fill="white"/>
<path d="M15.4758 24.8005C15.3639 24.7352 15.2707 24.6419 15.2054 24.5487C15.1028 24.6886 15.0469 24.8657 15.0469 25.0522V31.8968C15.0469 32.2139 15.2147 32.503 15.4758 32.6522L18.3386 34.3307C18.4785 34.4146 18.6277 34.4519 18.7862 34.4426V26.5909C18.637 26.5909 18.4785 26.5536 18.3386 26.479L15.4758 24.8005Z" fill="white"/>
<path d="M18.7862 23.9799C18.9261 23.9799 19.0753 23.9426 19.2059 23.868L22.0686 22.1894C22.3391 22.0309 22.4976 21.7418 22.4976 21.4341V18.0771C22.4976 17.9932 22.4883 17.9186 22.4603 17.844L18.7769 19.9887V23.9892L18.7862 23.9799Z" fill="#DCDBDB"/>
<path d="M19.2056 34.34L22.0684 32.6615C22.3389 32.503 22.4974 32.2139 22.4974 31.9062V25.0616C22.4974 24.8751 22.4414 24.6979 22.3389 24.558C22.2643 24.6606 22.171 24.7445 22.0684 24.8098L19.2056 26.4883C19.0751 26.5629 18.9352 26.6002 18.786 26.6002V34.4519C18.9259 34.4519 19.0751 34.4146 19.2056 34.34Z" fill="#DCDBDB"/>
<path d="M22.4688 17.8253C22.4128 17.6108 22.2729 17.4243 22.0678 17.3031L19.205 15.6246C19.0744 15.55 18.9346 15.5127 18.7854 15.5127C18.6362 15.5127 18.4776 15.55 18.3377 15.6246L15.475 17.3031C15.2791 17.415 15.1401 17.6015 15.0842 17.816L18.786 19.9794L22.4688 17.8346V17.8253Z" fill="#E2E2E2"/>
<path d="M17.0454 1.4165L17.0464 1.41592C17.99 0.861359 19.1561 0.861359 20.0997 1.41593L20.1012 1.41681L33.6553 9.3509C33.6555 9.35103 33.6558 9.35116 33.656 9.3513C34.6056 9.90971 35.2009 10.9476 35.2009 12.0595V27.9405C35.2009 29.0706 34.6111 30.1005 33.6642 30.6439L33.6642 30.6439L33.6568 30.6482L20.1012 38.5832L20.0997 38.5841C19.1561 39.1386 17.99 39.1386 17.0464 38.5841L17.0444 38.5829L3.49085 30.6601C3.4905 30.6599 3.49016 30.6597 3.48981 30.6595C2.54044 30.101 1.94531 29.0633 1.94531 27.9515V12.0705C1.94531 10.9404 2.53505 9.91053 3.48192 9.36711L3.48194 9.36714L3.48986 9.3625L17.0454 1.4165Z" stroke="url(#paint0_linear_490_26353)" stroke-width="2"/>
<path d="M62.4212 23.776H57.2972V31H54.5532V10.756H62.4212C66.3972 10.756 68.9452 13.36 68.9452 17.252C68.9452 21.032 66.3692 23.776 62.4212 23.776ZM61.9452 13.22H57.2972V21.312H61.8332C64.5492 21.312 66.0612 19.716 66.0612 17.224C66.0612 14.676 64.5212 13.22 61.9452 13.22ZM75.0623 31.336C72.1223 31.336 70.3863 29.684 70.3863 27.192C70.3863 24.672 72.2623 23.104 75.4823 22.852L79.7943 22.516V22.124C79.7943 19.828 78.4223 19.016 76.5743 19.016C74.3623 19.016 73.1023 19.996 73.1023 21.648H70.8063C70.8063 18.792 73.1583 16.916 76.6863 16.916C80.0743 16.916 82.3703 18.708 82.3703 22.404V31H80.1303L79.8503 28.788C79.1503 30.356 77.2743 31.336 75.0623 31.336ZM75.8183 29.292C78.3103 29.292 79.8223 27.668 79.8223 25.092V24.364L76.3223 24.644C73.9983 24.868 73.0463 25.764 73.0463 27.108C73.0463 28.564 74.1103 29.292 75.8183 29.292ZM84.8953 27.024H87.4153C87.4153 28.424 88.4793 29.264 90.2153 29.264C92.0633 29.264 93.1273 28.508 93.1273 27.248C93.1273 26.324 92.6793 25.764 91.2513 25.4L88.8433 24.84C86.4073 24.252 85.2593 23.048 85.2593 21.032C85.2593 18.512 87.3873 16.916 90.4113 16.916C93.4073 16.916 95.3673 18.596 95.4233 21.2H92.9033C92.8473 19.828 91.9233 18.96 90.3273 18.96C88.6753 18.96 87.7513 19.688 87.7513 20.948C87.7513 21.872 88.4233 22.488 89.7673 22.824L92.1753 23.412C94.4993 23.972 95.6473 25.036 95.6473 27.08C95.6473 29.684 93.4073 31.336 90.1593 31.336C86.9393 31.336 84.8953 29.628 84.8953 27.024ZM97.4461 27.024H99.9661C99.9661 28.424 101.03 29.264 102.766 29.264C104.614 29.264 105.678 28.508 105.678 27.248C105.678 26.324 105.23 25.764 103.802 25.4L101.394 24.84C98.9581 24.252 97.8101 23.048 97.8101 21.032C97.8101 18.512 99.9381 16.916 102.962 16.916C105.958 16.916 107.918 18.596 107.974 21.2H105.454C105.398 19.828 104.474 18.96 102.878 18.96C101.226 18.96 100.302 19.688 100.302 20.948C100.302 21.872 100.974 22.488 102.318 22.824L104.726 23.412C107.05 23.972 108.198 25.036 108.198 27.08C108.198 29.684 105.958 31.336 102.71 31.336C99.4901 31.336 97.4461 29.628 97.4461 27.024Z" fill="white"/>
<defs>
<linearGradient id="paint0_linear_490_26353" x1="18.5731" y1="0" x2="18.5731" y2="40" gradientUnits="userSpaceOnUse">
<stop stop-color="#FFD700"/>
<stop offset="1" stop-color="#FF6F61"/>
</linearGradient>
</defs>
</svg>