<svg width="70" height="24" viewBox="0 0 70 24" fill="none" xmlns="http://www.w3.org/2000/svg">
<path d="M9.42863 10.6895C9.41185 10.7398 9.40625 10.7902 9.40625 10.8405V12.8548C9.40625 13.045 9.50696 13.2184 9.66362 13.308L11.3813 14.3151C11.4652 14.3654 11.5547 14.3878 11.6499 14.3822V11.9819L9.42863 10.6839V10.6895Z" fill="white"/>
<path d="M9.66362 14.8802C9.59648 14.841 9.54053 14.785 9.50137 14.7291C9.43982 14.813 9.40625 14.9193 9.40625 15.0312V19.138C9.40625 19.3282 9.50696 19.5017 9.66362 19.5912L11.3813 20.5983C11.4652 20.6486 11.5547 20.671 11.6499 20.6654V15.9544C11.5603 15.9544 11.4652 15.932 11.3813 15.8873L9.66362 14.8802Z" fill="white"/>
<path d="M11.6499 14.3878C11.7338 14.3878 11.8233 14.3654 11.9016 14.3207L13.6193 13.3135C13.7816 13.2184 13.8767 13.045 13.8767 12.8603V10.8461C13.8767 10.7958 13.8711 10.751 13.8543 10.7063L11.6443 11.9931V14.3934L11.6499 14.3878Z" fill="#DCDBDB"/>
<path d="M11.9015 20.6039L13.6192 19.5968C13.7814 19.5017 13.8766 19.3282 13.8766 19.1436V15.0368C13.8766 14.9249 13.843 14.8186 13.7814 14.7347C13.7367 14.7962 13.6807 14.8466 13.6192 14.8858L11.9015 15.8929C11.8232 15.9376 11.7393 15.96 11.6497 15.96V20.671C11.7337 20.671 11.8232 20.6486 11.9015 20.6039Z" fill="#DCDBDB"/>
<path d="M13.8594 10.6951C13.8258 10.5664 13.7419 10.4545 13.6188 10.3817L11.9011 9.37464C11.8228 9.32988 11.7389 9.3075 11.6493 9.3075C11.5598 9.3075 11.4647 9.32988 11.3808 9.37464L9.6631 10.3817C9.5456 10.4489 9.4622 10.5608 9.42863 10.6895L11.6497 11.9875L13.8594 10.7007V10.6951Z" fill="#E2E2E2"/>
<path d="M10.5548 0.763632L10.5553 0.763341C11.1528 0.412219 11.8912 0.412219 12.4886 0.763342L12.4894 0.763784L20.622 5.52433C20.6221 5.52439 20.6222 5.52446 20.6223 5.52453C21.2228 5.87757 21.5986 6.53318 21.5986 7.23571V16.7643C21.5986 17.477 21.2266 18.1286 20.6264 18.4731L20.6264 18.4731L20.6227 18.4752L12.4894 23.2362L12.4886 23.2367C11.8912 23.5878 11.1528 23.5878 10.5553 23.2367L10.5543 23.2361L2.42197 18.4823C2.4219 18.4822 2.42184 18.4822 2.42178 18.4822C1.82126 18.1291 1.44531 17.4735 1.44531 16.7709V7.24232C1.44531 6.52958 1.81733 5.87798 2.4175 5.53353L2.41751 5.53355L2.42147 5.53123L10.5548 0.763632Z" stroke="url(#paint0_linear_2435_14412)"/>
<path d="M31.9236 18H30.2916L34.5156 6.432H36.2596L40.4996 18H38.8516L37.8116 15.12H32.9476L31.9236 18ZM35.1876 8.928L33.4276 13.76H37.3476L35.5716 8.928C35.4916 8.704 35.4116 8.432 35.3796 8.256C35.3476 8.416 35.2676 8.688 35.1876 8.928ZM41.1414 15.728H42.5814C42.5814 16.528 43.1894 17.008 44.1814 17.008C45.2374 17.008 45.8454 16.576 45.8454 15.856C45.8454 15.328 45.5894 15.008 44.7734 14.8L43.3974 14.48C42.0054 14.144 41.3494 13.456 41.3494 12.304C41.3494 10.864 42.5654 9.952 44.2934 9.952C46.0054 9.952 47.1254 10.912 47.1574 12.4H45.7174C45.6854 11.616 45.1574 11.12 44.2454 11.12C43.3014 11.12 42.7734 11.536 42.7734 12.256C42.7734 12.784 43.1574 13.136 43.9254 13.328L45.3014 13.664C46.6294 13.984 47.2854 14.592 47.2854 15.76C47.2854 17.248 46.0054 18.192 44.1494 18.192C42.3094 18.192 41.1414 17.216 41.1414 15.728ZM48.3132 15.728H49.7532C49.7532 16.528 50.3612 17.008 51.3532 17.008C52.4092 17.008 53.0172 16.576 53.0172 15.856C53.0172 15.328 52.7612 15.008 51.9452 14.8L50.5692 14.48C49.1772 14.144 48.5212 13.456 48.5212 12.304C48.5212 10.864 49.7372 9.952 51.4652 9.952C53.1772 9.952 54.2972 10.912 54.3292 12.4H52.8892C52.8572 11.616 52.3292 11.12 51.4172 11.12C50.4732 11.12 49.9452 11.536 49.9452 12.256C49.9452 12.784 50.3292 13.136 51.0972 13.328L52.4732 13.664C53.8012 13.984 54.4572 14.592 54.4572 15.76C54.4572 17.248 53.1772 18.192 51.3212 18.192C49.4812 18.192 48.3132 17.216 48.3132 15.728ZM59.5011 18.192C57.1971 18.192 55.6131 16.528 55.6131 14.096C55.6131 11.648 57.1651 9.952 59.4371 9.952C61.6611 9.952 63.1171 11.488 63.1171 13.808V14.368L57.0691 14.384C57.1811 16.032 58.0451 16.944 59.5331 16.944C60.7011 16.944 61.4691 16.464 61.7251 15.568H63.1331C62.7491 17.248 61.4371 18.192 59.5011 18.192ZM59.4371 11.216C58.1251 11.216 57.2931 12 57.1011 13.376H61.6131C61.6131 12.08 60.7651 11.216 59.4371 11.216ZM66.9269 18H65.4229V11.44H63.8869V10.176H65.4229V7.728H66.9269V10.176H68.4629V11.44H66.9269V18Z" fill="white"/>
<defs>
<linearGradient id="paint0_linear_2435_14412" x1="11.522" y1="0" x2="11.522" y2="24" gradientUnits="userSpaceOnUse">
<stop stop-color="#F76F8E"/>
<stop offset="1" stop-color="#FFEAD0"/>
</linearGradient>
</defs>
</svg>
