<svg width="126" height="24" viewBox="0 0 126 24" fill="none" xmlns="http://www.w3.org/2000/svg">
<path d="M9.42863 10.6895C9.41185 10.7398 9.40625 10.7902 9.40625 10.8405V12.8548C9.40625 13.045 9.50696 13.2184 9.66362 13.308L11.3813 14.3151C11.4652 14.3654 11.5547 14.3878 11.6499 14.3822V11.9819L9.42863 10.6839V10.6895Z" fill="white"/>
<path d="M9.66362 14.8802C9.59648 14.841 9.54053 14.785 9.50137 14.7291C9.43982 14.813 9.40625 14.9193 9.40625 15.0312V19.138C9.40625 19.3282 9.50696 19.5017 9.66362 19.5912L11.3813 20.5983C11.4652 20.6486 11.5547 20.671 11.6499 20.6654V15.9544C11.5603 15.9544 11.4652 15.932 11.3813 15.8873L9.66362 14.8802Z" fill="white"/>
<path d="M11.6499 14.3878C11.7338 14.3878 11.8233 14.3654 11.9016 14.3207L13.6193 13.3135C13.7816 13.2184 13.8767 13.045 13.8767 12.8603V10.8461C13.8767 10.7958 13.8711 10.751 13.8543 10.7063L11.6443 11.9931V14.3934L11.6499 14.3878Z" fill="#DCDBDB"/>
<path d="M11.9015 20.6039L13.6192 19.5968C13.7814 19.5017 13.8766 19.3282 13.8766 19.1436V15.0368C13.8766 14.9249 13.843 14.8186 13.7814 14.7347C13.7367 14.7962 13.6807 14.8466 13.6192 14.8858L11.9015 15.8929C11.8232 15.9376 11.7393 15.96 11.6497 15.96V20.671C11.7337 20.671 11.8232 20.6486 11.9015 20.6039Z" fill="#DCDBDB"/>
<path d="M13.8594 10.6951C13.8258 10.5664 13.7419 10.4545 13.6188 10.3817L11.9011 9.37464C11.8228 9.32988 11.7389 9.3075 11.6493 9.3075C11.5598 9.3075 11.4647 9.32988 11.3808 9.37464L9.6631 10.3817C9.5456 10.4489 9.4622 10.5608 9.42863 10.6895L11.6497 11.9875L13.8594 10.7007V10.6951Z" fill="#E2E2E2"/>
<path d="M10.5548 0.763632L10.5553 0.763341C11.1528 0.412219 11.8912 0.412219 12.4886 0.763342L12.4894 0.763784L20.622 5.52433C20.6221 5.52439 20.6222 5.52446 20.6223 5.52453C21.2228 5.87757 21.5986 6.53318 21.5986 7.23571V16.7643C21.5986 17.477 21.2266 18.1286 20.6264 18.4731L20.6264 18.4731L20.6227 18.4752L12.4894 23.2362L12.4886 23.2367C11.8912 23.5878 11.1528 23.5878 10.5553 23.2367L10.5543 23.2361L2.42197 18.4823C2.4219 18.4822 2.42184 18.4822 2.42178 18.4822C1.82126 18.1291 1.44531 17.4735 1.44531 16.7709V7.24232C1.44531 6.52958 1.81733 5.87798 2.4175 5.53353L2.41751 5.53355L2.42147 5.53123L10.5548 0.763632Z" stroke="url(#paint0_linear_2435_14397)"/>
<path d="M31.4436 18V6.432H35.8596C38.1156 6.432 39.4916 7.584 39.4916 9.488C39.4916 10.816 38.9156 11.712 37.7636 12.192C39.0436 12.608 39.6996 13.536 39.6996 14.912C39.6996 16.832 38.3076 18 36.0196 18H31.4436ZM35.7636 7.824H33.0116V11.536H35.8596C37.1556 11.536 37.8916 10.832 37.8916 9.632C37.8916 8.48 37.1236 7.824 35.7636 7.824ZM35.9876 12.896H33.0116V16.608H35.9876C37.3316 16.608 38.0836 15.92 38.0836 14.72C38.0836 13.568 37.3156 12.896 35.9876 12.896ZM40.8944 14.08C40.8944 11.664 42.6224 9.968 44.9744 9.968C47.3104 9.968 49.0384 11.664 49.0384 14.08C49.0384 16.496 47.3104 18.192 44.9744 18.192C42.6224 18.192 40.8944 16.496 40.8944 14.08ZM42.4144 14.08C42.4144 15.712 43.4544 16.848 44.9744 16.848C46.4784 16.848 47.5344 15.712 47.5344 14.08C47.5344 12.448 46.4784 11.312 44.9744 11.312C43.4544 11.312 42.4144 12.448 42.4144 14.08ZM50.1912 14.08C50.1912 11.664 51.9192 9.968 54.2712 9.968C56.6072 9.968 58.3352 11.664 58.3352 14.08C58.3352 16.496 56.6072 18.192 54.2712 18.192C51.9192 18.192 50.1912 16.496 50.1912 14.08ZM51.7112 14.08C51.7112 15.712 52.7512 16.848 54.2712 16.848C55.7752 16.848 56.8312 15.712 56.8312 14.08C56.8312 12.448 55.7752 11.312 54.2712 11.312C52.7512 11.312 51.7112 12.448 51.7112 14.08ZM61.5361 18H60.0321V6.224H61.5361V13.856L65.0081 10.176H66.8961L63.9041 13.296L66.8801 18H65.1521L62.8641 14.384L61.5361 15.776V18ZM69.6611 18H68.1571V6.224H69.6611V13.856L73.1331 10.176H75.0211L72.0291 13.296L75.0051 18H73.2771L70.9891 14.384L69.6611 15.776V18ZM79.3292 18.192C77.0252 18.192 75.4412 16.528 75.4412 14.096C75.4412 11.648 76.9932 9.952 79.2652 9.952C81.4892 9.952 82.9452 11.488 82.9452 13.808V14.368L76.8972 14.384C77.0092 16.032 77.8732 16.944 79.3612 16.944C80.5292 16.944 81.2972 16.464 81.5532 15.568H82.9612C82.5772 17.248 81.2652 18.192 79.3292 18.192ZM79.2652 11.216C77.9532 11.216 77.1212 12 76.9292 13.376H81.4412C81.4412 12.08 80.5932 11.216 79.2652 11.216ZM88.0011 18.192C85.6971 18.192 84.1131 16.528 84.1131 14.096C84.1131 11.648 85.6651 9.952 87.9371 9.952C90.1611 9.952 91.6171 11.488 91.6171 13.808V14.368L85.5691 14.384C85.6811 16.032 86.5451 16.944 88.0331 16.944C89.2011 16.944 89.9691 16.464 90.2251 15.568H91.6331C91.2491 17.248 89.9371 18.192 88.0011 18.192ZM87.9371 11.216C86.6251 11.216 85.7931 12 85.6011 13.376H90.1131C90.1131 12.08 89.2651 11.216 87.9371 11.216ZM93.297 21.504V10.176H94.657L94.769 11.584C95.297 10.512 96.353 9.952 97.601 9.952C99.841 9.952 101.233 11.632 101.233 14.032C101.233 16.416 99.921 18.208 97.601 18.208C96.353 18.208 95.313 17.68 94.801 16.72V21.504H93.297ZM94.817 14.096C94.817 15.696 95.745 16.848 97.281 16.848C98.817 16.848 99.729 15.696 99.729 14.096C99.729 12.48 98.817 11.328 97.281 11.328C95.745 11.328 94.817 12.464 94.817 14.096ZM103.627 8.32C103.083 8.32 102.635 7.872 102.635 7.328C102.635 6.768 103.083 6.336 103.627 6.336C104.171 6.336 104.619 6.768 104.619 7.328C104.619 7.872 104.171 8.32 103.627 8.32ZM102.891 18V10.176H104.395V18H102.891ZM108.082 18H106.578V10.176H107.938L108.098 11.376C108.594 10.48 109.586 9.952 110.69 9.952C112.754 9.952 113.698 11.216 113.698 13.216V18H112.194V13.552C112.194 11.968 111.458 11.328 110.306 11.328C108.898 11.328 108.082 12.336 108.082 13.856V18ZM115.285 13.888C115.285 11.68 116.709 9.952 118.981 9.952C120.245 9.952 121.221 10.528 121.717 11.504L121.829 10.176H123.173V17.68C123.173 20.144 121.653 21.712 119.253 21.712C117.125 21.712 115.669 20.512 115.381 18.528H116.885C117.077 19.68 117.941 20.352 119.253 20.352C120.725 20.352 121.685 19.392 121.685 17.904V16.336C121.173 17.248 120.149 17.792 118.917 17.792C116.693 17.792 115.285 16.08 115.285 13.888ZM116.789 13.856C116.789 15.328 117.701 16.48 119.173 16.48C120.693 16.48 121.621 15.392 121.621 13.856C121.621 12.352 120.725 11.264 119.189 11.264C117.685 11.264 116.789 12.416 116.789 13.856Z" fill="white"/>
<defs>
<linearGradient id="paint0_linear_2435_14397" x1="11.522" y1="0" x2="11.522" y2="24" gradientUnits="userSpaceOnUse">
<stop stop-color="#FF7629"/>
<stop offset="1" stop-color="#B5E825"/>
</linearGradient>
</defs>
</svg>
