<svg width="68" height="24" viewBox="0 0 68 24" fill="none" xmlns="http://www.w3.org/2000/svg">
<path d="M9.42863 10.6895C9.41185 10.7398 9.40625 10.7902 9.40625 10.8405V12.8548C9.40625 13.045 9.50696 13.2184 9.66362 13.308L11.3813 14.3151C11.4652 14.3654 11.5547 14.3878 11.6499 14.3822V11.9819L9.42863 10.6839V10.6895Z" fill="white"/>
<path d="M9.66362 14.8802C9.59648 14.841 9.54053 14.785 9.50137 14.7291C9.43982 14.813 9.40625 14.9193 9.40625 15.0312V19.138C9.40625 19.3282 9.50696 19.5017 9.66362 19.5912L11.3813 20.5983C11.4652 20.6486 11.5547 20.671 11.6499 20.6654V15.9544C11.5603 15.9544 11.4652 15.932 11.3813 15.8873L9.66362 14.8802Z" fill="white"/>
<path d="M11.6499 14.3878C11.7338 14.3878 11.8233 14.3654 11.9016 14.3207L13.6193 13.3135C13.7816 13.2184 13.8767 13.045 13.8767 12.8603V10.8461C13.8767 10.7958 13.8711 10.751 13.8543 10.7063L11.6443 11.9931V14.3934L11.6499 14.3878Z" fill="#DCDBDB"/>
<path d="M11.9015 20.6039L13.6192 19.5968C13.7814 19.5017 13.8766 19.3282 13.8766 19.1436V15.0368C13.8766 14.9249 13.843 14.8186 13.7814 14.7347C13.7367 14.7962 13.6807 14.8466 13.6192 14.8858L11.9015 15.8929C11.8232 15.9376 11.7393 15.96 11.6497 15.96V20.671C11.7337 20.671 11.8232 20.6486 11.9015 20.6039Z" fill="#DCDBDB"/>
<path d="M13.8594 10.6951C13.8258 10.5664 13.7419 10.4545 13.6188 10.3817L11.9011 9.37464C11.8228 9.32988 11.7389 9.3075 11.6493 9.3075C11.5598 9.3075 11.4647 9.32988 11.3808 9.37464L9.6631 10.3817C9.5456 10.4489 9.4622 10.5608 9.42863 10.6895L11.6497 11.9875L13.8594 10.7007V10.6951Z" fill="#E2E2E2"/>
<path d="M10.5548 0.763632L10.5553 0.763341C11.1528 0.412219 11.8912 0.412219 12.4886 0.763342L12.4894 0.763784L20.622 5.52433C20.6221 5.52439 20.6222 5.52446 20.6223 5.52453C21.2228 5.87757 21.5986 6.53318 21.5986 7.23571V16.7643C21.5986 17.477 21.2266 18.1286 20.6264 18.4731L20.6264 18.4731L20.6227 18.4752L12.4894 23.2362L12.4886 23.2367C11.8912 23.5878 11.1528 23.5878 10.5553 23.2367L10.5543 23.2361L2.42197 18.4823C2.4219 18.4822 2.42184 18.4822 2.42178 18.4822C1.82126 18.1291 1.44531 17.4735 1.44531 16.7709V7.24232C1.44531 6.52958 1.81733 5.87798 2.4175 5.53353L2.41751 5.53355L2.42147 5.53123L10.5548 0.763632Z" stroke="url(#paint0_linear_2435_14427)"/>
<path d="M36.2436 18.176C32.9476 18.176 30.7556 15.808 30.7556 12.224C30.7556 8.656 33.0116 6.24 36.3236 6.24C38.9316 6.24 40.9316 7.792 41.3636 10.16H39.6836C39.2516 8.656 37.9556 7.744 36.2756 7.744C33.9396 7.744 32.4036 9.504 32.4036 12.208C32.4036 14.912 33.9396 16.672 36.2756 16.672C37.9716 16.672 39.3156 15.76 39.7476 14.336H41.4116C40.9156 16.64 38.8516 18.176 36.2436 18.176ZM44.9022 18H43.3342V6.432H47.7022C50.1822 6.432 51.6542 7.744 51.6542 9.904C51.6542 11.504 50.8542 12.656 49.4142 13.12L51.7662 18H50.0222L47.8622 13.424H44.9022V18ZM44.9022 7.84V12.032H47.7182C49.1742 12.032 50.0062 11.248 50.0062 9.92C50.0062 8.576 49.1422 7.84 47.7022 7.84H44.9022ZM55.339 18H53.803V6.432H55.339L59.323 16.16L63.307 6.432H64.875V18H63.339V13.424C63.339 11.264 63.355 10.48 63.435 9.664L60.059 18H58.587L55.227 9.696C55.307 10.256 55.339 11.44 55.339 13.056V18Z" fill="white"/>
<defs>
<linearGradient id="paint0_linear_2435_14427" x1="11.522" y1="0" x2="11.522" y2="24" gradientUnits="userSpaceOnUse">
<stop stop-color="#34BAAB"/>
<stop offset="1" stop-color="#9A72C1"/>
</linearGradient>
</defs>
</svg>
