<svg width="152" height="24" viewBox="0 0 152 24" fill="none" xmlns="http://www.w3.org/2000/svg">
<path d="M9.42863 10.6895C9.41185 10.7398 9.40625 10.7902 9.40625 10.8405V12.8548C9.40625 13.045 9.50696 13.2184 9.66362 13.308L11.3813 14.3151C11.4652 14.3654 11.5547 14.3878 11.6499 14.3822V11.9819L9.42863 10.6839V10.6895Z" fill="white"/>
<path d="M9.66362 14.8802C9.59648 14.841 9.54053 14.785 9.50137 14.7291C9.43982 14.813 9.40625 14.9193 9.40625 15.0312V19.138C9.40625 19.3282 9.50696 19.5017 9.66362 19.5912L11.3813 20.5983C11.4652 20.6486 11.5547 20.671 11.6499 20.6654V15.9544C11.5603 15.9544 11.4652 15.932 11.3813 15.8873L9.66362 14.8802Z" fill="white"/>
<path d="M11.6499 14.3878C11.7338 14.3878 11.8233 14.3654 11.9016 14.3207L13.6193 13.3135C13.7816 13.2184 13.8767 13.045 13.8767 12.8603V10.8461C13.8767 10.7958 13.8711 10.751 13.8543 10.7063L11.6443 11.9931V14.3934L11.6499 14.3878Z" fill="#DCDBDB"/>
<path d="M11.9015 20.6039L13.6192 19.5968C13.7814 19.5017 13.8766 19.3282 13.8766 19.1436V15.0368C13.8766 14.9249 13.843 14.8186 13.7814 14.7347C13.7367 14.7962 13.6807 14.8466 13.6192 14.8858L11.9015 15.8929C11.8232 15.9376 11.7393 15.96 11.6497 15.96V20.671C11.7337 20.671 11.8232 20.6486 11.9015 20.6039Z" fill="#DCDBDB"/>
<path d="M13.8594 10.6951C13.8258 10.5664 13.7419 10.4545 13.6188 10.3817L11.9011 9.37464C11.8228 9.32988 11.7389 9.3075 11.6493 9.3075C11.5598 9.3075 11.4647 9.32988 11.3808 9.37464L9.6631 10.3817C9.5456 10.4489 9.4622 10.5608 9.42863 10.6895L11.6497 11.9875L13.8594 10.7007V10.6951Z" fill="#E2E2E2"/>
<path d="M10.5548 0.763632L10.5553 0.763341C11.1528 0.412219 11.8912 0.412219 12.4886 0.763342L12.4894 0.763784L20.622 5.52433C20.6221 5.52439 20.6222 5.52446 20.6223 5.52453C21.2228 5.87757 21.5986 6.53318 21.5986 7.23571V16.7643C21.5986 17.477 21.2266 18.1286 20.6264 18.4731L20.6264 18.4731L20.6227 18.4752L12.4894 23.2362L12.4886 23.2367C11.8912 23.5878 11.1528 23.5878 10.5553 23.2367L10.5543 23.2361L2.42197 18.4823C2.4219 18.4822 2.42184 18.4822 2.42178 18.4822C1.82126 18.1291 1.44531 17.4735 1.44531 16.7709V7.24232C1.44531 6.52958 1.81733 5.87798 2.4175 5.53353L2.41751 5.53355L2.42147 5.53123L10.5548 0.763632Z" stroke="url(#paint0_linear_2435_14402)"/>
<path d="M35.2676 18H31.4436V6.432H35.2036C38.6596 6.432 40.9956 8.768 40.9956 12.224C40.9956 15.664 38.6916 18 35.2676 18ZM35.0916 7.872H33.0116V16.544H35.1556C37.7316 16.544 39.3636 14.88 39.3636 12.224C39.3636 9.536 37.7316 7.872 35.0916 7.872ZM45.0225 18.192C43.3425 18.192 42.3505 17.248 42.3505 15.824C42.3505 14.384 43.4225 13.488 45.2625 13.344L47.7265 13.152V12.928C47.7265 11.616 46.9425 11.152 45.8865 11.152C44.6225 11.152 43.9025 11.712 43.9025 12.656H42.5905C42.5905 11.024 43.9345 9.952 45.9505 9.952C47.8865 9.952 49.1985 10.976 49.1985 13.088V18H47.9185L47.7585 16.736C47.3585 17.632 46.2865 18.192 45.0225 18.192ZM45.4545 17.024C46.8785 17.024 47.7425 16.096 47.7425 14.624V14.208L45.7425 14.368C44.4145 14.496 43.8705 15.008 43.8705 15.776C43.8705 16.608 44.4785 17.024 45.4545 17.024ZM53.3644 18H51.8604V11.44H50.3244V10.176H51.8604V7.728H53.3644V10.176H54.9004V11.44H53.3644V18ZM58.4444 18.192C56.7644 18.192 55.7724 17.248 55.7724 15.824C55.7724 14.384 56.8444 13.488 58.6844 13.344L61.1484 13.152V12.928C61.1484 11.616 60.3644 11.152 59.3084 11.152C58.0444 11.152 57.3244 11.712 57.3244 12.656H56.0124C56.0124 11.024 57.3564 9.952 59.3724 9.952C61.3084 9.952 62.6204 10.976 62.6204 13.088V18H61.3404L61.1804 16.736C60.7804 17.632 59.7084 18.192 58.4444 18.192ZM58.8764 17.024C60.3004 17.024 61.1644 16.096 61.1644 14.624V14.208L59.1644 14.368C57.8364 14.496 57.2924 15.008 57.2924 15.776C57.2924 16.608 57.9004 17.024 58.8764 17.024ZM70.9022 6.432V18H69.3342V6.432H70.9022ZM74.8479 18H73.3439V10.176H74.7039L74.8639 11.376C75.3599 10.48 76.3519 9.952 77.4559 9.952C79.5199 9.952 80.4639 11.216 80.4639 13.216V18H78.9599V13.552C78.9599 11.968 78.2239 11.328 77.0719 11.328C75.6639 11.328 74.8479 12.336 74.8479 13.856V18ZM84.755 18H83.251V11.44H81.715V10.176H83.251V7.728H84.755V10.176H86.291V11.44H84.755V18ZM90.9386 18.192C88.6346 18.192 87.0506 16.528 87.0506 14.096C87.0506 11.648 88.6026 9.952 90.8746 9.952C93.0986 9.952 94.5546 11.488 94.5546 13.808V14.368L88.5066 14.384C88.6186 16.032 89.4826 16.944 90.9706 16.944C92.1386 16.944 92.9066 16.464 93.1626 15.568H94.5706C94.1866 17.248 92.8746 18.192 90.9386 18.192ZM90.8746 11.216C89.5626 11.216 88.7306 12 88.5386 13.376H93.0506C93.0506 12.08 92.2026 11.216 90.8746 11.216ZM97.7705 18H96.2665V6.224H97.7705V18ZM101.52 18H100.016V6.224H101.52V18ZM104.47 8.32C103.926 8.32 103.478 7.872 103.478 7.328C103.478 6.768 103.926 6.336 104.47 6.336C105.014 6.336 105.462 6.768 105.462 7.328C105.462 7.872 105.014 8.32 104.47 8.32ZM103.734 18V10.176H105.238V18H103.734ZM106.926 13.888C106.926 11.68 108.35 9.952 110.622 9.952C111.886 9.952 112.862 10.528 113.358 11.504L113.47 10.176H114.814V17.68C114.814 20.144 113.294 21.712 110.894 21.712C108.766 21.712 107.31 20.512 107.022 18.528H108.526C108.718 19.68 109.582 20.352 110.894 20.352C112.366 20.352 113.326 19.392 113.326 17.904V16.336C112.814 17.248 111.79 17.792 110.558 17.792C108.334 17.792 106.926 16.08 106.926 13.888ZM108.43 13.856C108.43 15.328 109.342 16.48 110.814 16.48C112.334 16.48 113.262 15.392 113.262 13.856C113.262 12.352 112.366 11.264 110.83 11.264C109.326 11.264 108.43 12.416 108.43 13.856ZM120.36 18.192C118.056 18.192 116.472 16.528 116.472 14.096C116.472 11.648 118.024 9.952 120.296 9.952C122.52 9.952 123.976 11.488 123.976 13.808V14.368L117.928 14.384C118.04 16.032 118.904 16.944 120.392 16.944C121.56 16.944 122.328 16.464 122.584 15.568H123.992C123.608 17.248 122.296 18.192 120.36 18.192ZM120.296 11.216C118.984 11.216 118.152 12 117.96 13.376H122.472C122.472 12.08 121.624 11.216 120.296 11.216ZM127.16 18H125.656V10.176H127.016L127.176 11.376C127.672 10.48 128.664 9.952 129.768 9.952C131.832 9.952 132.776 11.216 132.776 13.216V18H131.272V13.552C131.272 11.968 130.536 11.328 129.384 11.328C127.976 11.328 127.16 12.336 127.16 13.856V18ZM134.347 14.096C134.347 11.648 135.899 9.952 138.187 9.952C140.155 9.952 141.531 11.072 141.803 12.816H140.299C140.043 11.824 139.243 11.296 138.235 11.296C136.811 11.296 135.835 12.384 135.835 14.08C135.835 15.76 136.747 16.848 138.171 16.848C139.243 16.848 140.043 16.288 140.315 15.36H141.819C141.515 17.056 140.059 18.192 138.171 18.192C135.867 18.192 134.347 16.56 134.347 14.096ZM146.782 18.192C144.478 18.192 142.894 16.528 142.894 14.096C142.894 11.648 144.446 9.952 146.718 9.952C148.942 9.952 150.398 11.488 150.398 13.808V14.368L144.35 14.384C144.462 16.032 145.326 16.944 146.814 16.944C147.982 16.944 148.75 16.464 149.006 15.568H150.414C150.03 17.248 148.718 18.192 146.782 18.192ZM146.718 11.216C145.406 11.216 144.574 12 144.382 13.376H148.894C148.894 12.08 148.046 11.216 146.718 11.216Z" fill="white"/>
<defs>
<linearGradient id="paint0_linear_2435_14402" x1="11.522" y1="0" x2="11.522" y2="24" gradientUnits="userSpaceOnUse">
<stop stop-color="#3DC5FF"/>
<stop offset="1" stop-color="#D385F8"/>
</linearGradient>
</defs>
</svg>
