<svg width="29" height="32" viewBox="0 0 29 32" fill="none" xmlns="http://www.w3.org/2000/svg">
<path fill-rule="evenodd" clip-rule="evenodd" d="M12.4755 0.443036C13.4806 -0.147679 14.7238 -0.147679 15.7289 0.443036L26.5734 6.79102C27.5785 7.38173 28.2044 8.475 28.2044 9.64761V22.3524C28.2044 23.5338 27.5873 24.6271 26.5734 25.209L15.7289 31.557C14.7238 32.1477 13.4806 32.1477 12.4755 31.557L1.63108 25.2178C0.625982 24.6271 0 23.5338 0 22.3612V9.65643C0 8.475 0.617165 7.38173 1.63108 6.79983L12.4755 0.443036Z" fill="url(#paint0_linear_2435_14696)"/>
<path d="M11.3111 14.2528C11.2887 14.3199 11.2812 14.3871 11.2812 14.4542V17.1398C11.2812 17.3935 11.4155 17.6247 11.6244 17.7441L13.9146 19.0869C14.0265 19.1541 14.1459 19.1839 14.2727 19.1764V15.9761L11.3111 14.2453V14.2528Z" fill="white"/>
<path d="M11.6244 19.8404C11.5349 19.7881 11.4603 19.7135 11.4081 19.6389C11.326 19.7508 11.2812 19.8926 11.2812 20.0418V25.5175C11.2812 25.7711 11.4155 26.0024 11.6244 26.1217L13.9146 27.4645C14.0265 27.5317 14.1459 27.5615 14.2727 27.5541V21.2727C14.1534 21.2727 14.0265 21.2429 13.9146 21.1832L11.6244 19.8404Z" fill="white"/>
<path d="M14.2727 19.1839C14.3846 19.1839 14.504 19.154 14.6084 19.0944L16.8987 17.7516C17.115 17.6247 17.2418 17.3935 17.2418 17.1473V14.4617C17.2418 14.3945 17.2344 14.3348 17.212 14.2752L14.2653 15.991V19.1913L14.2727 19.1839Z" fill="#CBC4C4"/>
<path d="M14.6083 27.472L16.8985 26.1292C17.1148 26.0024 17.2417 25.7711 17.2417 25.5249V20.0493C17.2417 19.9001 17.1969 19.7583 17.1148 19.6464C17.0552 19.7285 16.9806 19.7956 16.8985 19.8478L14.6083 21.1906C14.5038 21.2503 14.3919 21.2802 14.2726 21.2802V27.5615C14.3845 27.5615 14.5038 27.5317 14.6083 27.472Z" fill="#CBC4C4"/>
<path d="M17.2188 14.2602C17.174 14.0887 17.0621 13.9395 16.898 13.8425L14.6077 12.4997C14.5033 12.44 14.3914 12.4102 14.272 12.4102C14.1527 12.4102 14.0259 12.44 13.9139 12.4997L11.6237 13.8425C11.4671 13.932 11.3559 14.0812 11.3111 14.2528L14.2726 15.9835L17.2188 14.2677V14.2602Z" fill="#D6D6D6"/>
<defs>
<linearGradient id="paint0_linear_2435_14696" x1="14.1022" y1="0" x2="14.1022" y2="32" gradientUnits="userSpaceOnUse">
<stop stop-color="#2952FF"/>
<stop offset="1" stop-color="#26D9E9"/>
</linearGradient>
</defs>
</svg>
