<svg width="22" height="24" viewBox="0 0 22 24" fill="none" xmlns="http://www.w3.org/2000/svg">
<path fill-rule="evenodd" clip-rule="evenodd" d="M9.35666 0.332277C10.1105 -0.110759 11.0428 -0.110759 11.7967 0.332277L19.93 5.09326C20.6838 5.5363 21.1533 6.35625 21.1533 7.23571V16.7643C21.1533 17.6504 20.6905 18.4703 19.93 18.9067L11.7967 23.6677C11.0428 24.1108 10.1105 24.1108 9.35666 23.6677L1.22331 18.9133C0.469486 18.4703 0 17.6504 0 16.7709V7.24232C0 6.35625 0.462874 5.5363 1.22331 5.09988L9.35666 0.332277Z" fill="url(#paint0_linear_2435_14646)"/>
<path d="M8.48332 10.6895C8.46653 10.7398 8.46094 10.7902 8.46094 10.8405V12.8548C8.46094 13.045 8.56165 13.2184 8.71831 13.308L10.436 14.3151C10.5199 14.3654 10.6094 14.3878 10.7045 14.3822V11.9819L8.48332 10.6839V10.6895Z" fill="white"/>
<path d="M8.71831 14.8802C8.65117 14.841 8.59522 14.785 8.55605 14.7291C8.49451 14.813 8.46094 14.9193 8.46094 15.0312V19.138C8.46094 19.3282 8.56165 19.5017 8.71831 19.5912L10.436 20.5983C10.5199 20.6486 10.6094 20.671 10.7045 20.6654V15.9544C10.615 15.9544 10.5199 15.932 10.436 15.8873L8.71831 14.8802Z" fill="white"/>
<path d="M10.7045 14.3878C10.7885 14.3878 10.878 14.3654 10.9563 14.3207L12.674 13.3135C12.8363 13.2184 12.9314 13.045 12.9314 12.8603V10.8461C12.9314 10.7958 12.9258 10.751 12.909 10.7063L10.699 11.9931V14.3934L10.7045 14.3878Z" fill="#CBC4C4"/>
<path d="M10.9562 20.6039L12.6739 19.5968C12.8361 19.5017 12.9312 19.3282 12.9312 19.1436V15.0368C12.9312 14.9249 12.8977 14.8186 12.8361 14.7347C12.7914 14.7962 12.7354 14.8466 12.6739 14.8858L10.9562 15.8929C10.8779 15.9376 10.7939 15.96 10.7044 15.96V20.671C10.7883 20.671 10.8779 20.6486 10.9562 20.6039Z" fill="#CBC4C4"/>
<path d="M12.9141 10.6951C12.8805 10.5664 12.7966 10.4545 12.6735 10.3817L10.9558 9.37464C10.8775 9.32988 10.7935 9.3075 10.704 9.3075C10.6145 9.3075 10.5194 9.32988 10.4355 9.37464L8.71778 10.3817C8.60029 10.4489 8.51689 10.5608 8.48332 10.6895L10.7044 11.9875L12.9141 10.7007V10.6951Z" fill="#D6D6D6"/>
<defs>
<linearGradient id="paint0_linear_2435_14646" x1="10.5767" y1="0" x2="10.5767" y2="24" gradientUnits="userSpaceOnUse">
<stop stop-color="#42C4FF"/>
<stop offset="1" stop-color="#D286F9"/>
</linearGradient>
</defs>
</svg>
