<svg xmlns="http://www.w3.org/2000/svg" width="1290" height="400" viewBox="0 0 129 40" fill="none">
  <path d="M49.8966 15.0208H54.8869V35.5092H49.8966V15.0208Z" fill="white"/>
  <path d="M62.8015 35.5092V19.2538H58.9131V15.0207H62.8015V8.62817H67.7918V15.0207H71.7226V19.2538H67.7918V35.5092H62.8015Z" fill="white"/>
  <path d="M73.7357 25.2702C73.7357 18.8347 77.8678 14.3975 83.8011 14.3975C89.7344 14.3975 93.697 18.5016 93.697 24.8942V26.4305L78.4823 26.4735C78.8532 30.0834 80.7285 31.9099 84.0448 31.9099C86.7889 31.9099 88.5901 30.8355 89.1623 28.8801H93.7817C92.9235 33.3603 89.247 36.057 83.9706 36.057C77.9632 36.057 73.7463 31.6198 73.7463 25.2702H73.7357ZM78.5989 23.2396H88.749C88.749 20.4247 86.8313 18.5553 83.8435 18.5553C80.8557 18.5553 79.0969 20.1776 78.6095 23.2396H78.5989Z" fill="white"/>
  <path d="M97.7019 35.509V15.0206H102.279L102.692 17.4272C103.72 15.7297 105.765 14.3975 108.668 14.3975C111.741 14.3975 113.86 15.9338 114.93 18.2975C115.957 15.9338 118.32 14.3975 121.393 14.3975C126.298 14.3975 129 17.3842 129 22.1115V35.509H124.052V23.4437C124.052 20.4999 122.495 18.9636 120.121 18.9636C117.748 18.9636 115.862 20.5429 115.862 23.895V35.509H110.872V23.4008C110.872 20.5429 109.357 19.0066 106.983 19.0066C104.61 19.0066 102.692 20.5859 102.692 23.9057V35.5198H97.7019V35.509Z" fill="white"/>
  <path d="M54.1241 5.03955H50.6912C50.2462 5.03955 49.8966 5.42633 49.8966 5.9098V9.67013C49.8966 10.1536 50.2568 10.5404 50.6912 10.5404H54.1241C54.5691 10.5404 54.9187 10.1536 54.9187 9.67013V5.9098C54.9187 5.42633 54.5585 5.03955 54.1241 5.03955Z" fill="white"/>
  <path fill-rule="evenodd" clip-rule="evenodd" d="M19.4532 1.16397C18.2452 0.44404 16.7511 0.44404 15.5431 1.16397L2.50926 8.91132C1.29065 9.62051 0.548889 10.9529 0.548889 12.3928V27.8767C0.548889 29.3059 1.30125 30.6383 2.50926 31.3582L15.5431 39.0841C16.7511 39.804 18.2452 39.804 19.4532 39.0841L32.4871 31.3475C33.7057 30.6383 34.4474 29.3059 34.4474 27.866V12.382C34.4474 10.9529 33.6951 9.62051 32.4871 8.90058L19.4532 1.16397ZM21.2638 17.2819C21.4969 17.4216 21.6559 17.6365 21.7195 17.8836V17.8943L17.5348 20.3656V20.3702L21.7099 17.9051C21.7416 17.991 21.7522 18.077 21.7522 18.1737V22.042C21.7522 22.3966 21.5721 22.7297 21.2648 22.9124L18.0116 24.8465C17.8633 24.9325 17.6937 24.9755 17.5348 24.9755L17.5242 24.9862V24.9653C17.348 24.9738 17.182 24.9306 17.0262 24.8358L13.773 22.9017C13.4763 22.7297 13.2856 22.3966 13.2856 22.0313V18.163C13.2856 18.0663 13.2962 17.9696 13.3279 17.8729V17.8621L13.3304 17.8636C13.3955 17.6203 13.5523 17.4092 13.772 17.2819L17.0252 15.3477C17.1841 15.2617 17.3643 15.2188 17.5338 15.2188C17.7033 15.2188 17.8623 15.2617 18.0106 15.3477L21.2638 17.2819ZM13.773 25.9211C13.6458 25.8459 13.5399 25.7384 13.4657 25.6309C13.3491 25.7921 13.2856 25.9963 13.2856 26.2112V34.0982C13.2856 34.4636 13.4763 34.7967 13.773 34.9686L17.0262 36.9027C17.185 36.9994 17.3545 37.0424 17.5345 37.0317V37.0424C17.6935 37.0424 17.863 36.9995 18.0114 36.9135L21.2646 34.9794C21.5719 34.7967 21.752 34.4636 21.752 34.109V26.2219C21.752 26.007 21.6884 25.8029 21.5719 25.6417C21.4871 25.7599 21.3811 25.8566 21.2646 25.9318L18.0114 27.866C17.8631 27.9519 17.7042 27.9949 17.5348 27.9949V27.9842C17.3652 27.9842 17.1851 27.9412 17.0262 27.8552L13.773 25.9211Z" fill="white"/>
</svg>