<svg width="63" height="24" viewBox="0 0 63 24" fill="none" xmlns="http://www.w3.org/2000/svg">
<path d="M9.42863 10.6895C9.41185 10.7398 9.40625 10.7902 9.40625 10.8405V12.8548C9.40625 13.045 9.50696 13.2184 9.66362 13.308L11.3813 14.3151C11.4652 14.3654 11.5547 14.3878 11.6499 14.3822V11.9819L9.42863 10.6839V10.6895Z" fill="white"/>
<path d="M9.66362 14.8802C9.59648 14.841 9.54053 14.785 9.50137 14.7291C9.43982 14.813 9.40625 14.9193 9.40625 15.0312V19.138C9.40625 19.3282 9.50696 19.5017 9.66362 19.5912L11.3813 20.5983C11.4652 20.6486 11.5547 20.671 11.6499 20.6654V15.9544C11.5603 15.9544 11.4652 15.932 11.3813 15.8873L9.66362 14.8802Z" fill="white"/>
<path d="M11.6499 14.3878C11.7338 14.3878 11.8233 14.3654 11.9016 14.3207L13.6193 13.3135C13.7816 13.2184 13.8767 13.045 13.8767 12.8603V10.8461C13.8767 10.7958 13.8711 10.751 13.8543 10.7063L11.6443 11.9931V14.3934L11.6499 14.3878Z" fill="#DCDBDB"/>
<path d="M11.9015 20.6039L13.6192 19.5968C13.7814 19.5017 13.8766 19.3282 13.8766 19.1436V15.0368C13.8766 14.9249 13.843 14.8186 13.7814 14.7347C13.7367 14.7962 13.6807 14.8466 13.6192 14.8858L11.9015 15.8929C11.8232 15.9376 11.7393 15.96 11.6497 15.96V20.671C11.7337 20.671 11.8232 20.6486 11.9015 20.6039Z" fill="#DCDBDB"/>
<path d="M13.8594 10.6951C13.8258 10.5664 13.7419 10.4545 13.6188 10.3817L11.9011 9.37464C11.8228 9.32988 11.7389 9.3075 11.6493 9.3075C11.5598 9.3075 11.4647 9.32988 11.3808 9.37464L9.6631 10.3817C9.5456 10.4489 9.4622 10.5608 9.42863 10.6895L11.6497 11.9875L13.8594 10.7007V10.6951Z" fill="#E2E2E2"/>
<path d="M10.5548 0.763632L10.5553 0.763341C11.1528 0.412219 11.8912 0.412219 12.4886 0.763342L12.4894 0.763784L20.622 5.52433C20.6221 5.52439 20.6222 5.52446 20.6223 5.52453C21.2228 5.87757 21.5986 6.53318 21.5986 7.23571V16.7643C21.5986 17.477 21.2266 18.1286 20.6264 18.4731L20.6264 18.4731L20.6227 18.4752L12.4894 23.2362L12.4886 23.2367C11.8912 23.5878 11.1528 23.5878 10.5553 23.2367L10.5543 23.2361L2.42197 18.4823C2.4219 18.4822 2.42184 18.4822 2.42178 18.4822C1.82126 18.1291 1.44531 17.4735 1.44531 16.7709V7.24232C1.44531 6.52958 1.81733 5.87798 2.4175 5.53353L2.41751 5.53355L2.42147 5.53123L10.5548 0.763632Z" stroke="url(#paint0_linear_2435_14407)"/>
<path d="M35.9396 13.872H33.0116V18H31.4436V6.432H35.9396C38.2116 6.432 39.6676 7.92 39.6676 10.144C39.6676 12.304 38.1956 13.872 35.9396 13.872ZM35.6676 7.84H33.0116V12.464H35.6036C37.1556 12.464 38.0196 11.552 38.0196 10.128C38.0196 8.672 37.1396 7.84 35.6676 7.84ZM51.8756 12.208C51.8756 15.728 49.5716 18.192 46.2916 18.192C43.0276 18.192 40.7556 15.728 40.7556 12.208C40.7556 8.704 43.0436 6.224 46.3076 6.224C49.5876 6.224 51.8756 8.688 51.8756 12.208ZM50.2276 12.208C50.2276 9.52 48.6596 7.744 46.3076 7.744C43.9556 7.744 42.4036 9.52 42.4036 12.208C42.4036 14.896 43.9556 16.688 46.3076 16.688C48.6596 16.688 50.2276 14.88 50.2276 12.208ZM53.2091 9.552C53.2091 7.568 54.8091 6.224 57.1931 6.224C59.4011 6.224 60.8251 7.456 60.9531 9.456H59.3691C59.2891 8.304 58.4731 7.632 57.1771 7.632C55.7211 7.632 54.7771 8.368 54.7771 9.504C54.7771 10.432 55.3051 10.992 56.3931 11.248L58.2971 11.696C60.1851 12.128 61.1451 13.152 61.1451 14.784C61.1451 16.864 59.5291 18.192 57.0651 18.192C54.7131 18.192 53.1451 16.96 53.0491 14.976H54.6491C54.6811 16.08 55.6091 16.784 57.0651 16.784C58.6011 16.784 59.5771 16.064 59.5771 14.912C59.5771 14 59.0811 13.424 57.9771 13.168L56.0731 12.736C54.1851 12.304 53.2091 11.216 53.2091 9.552Z" fill="white"/>
<defs>
<linearGradient id="paint0_linear_2435_14407" x1="11.522" y1="0" x2="11.522" y2="24" gradientUnits="userSpaceOnUse">
<stop stop-color="#00BBF9"/>
<stop offset="1" stop-color="#FEE440"/>
</linearGradient>
</defs>
</svg>
