<svg width="125" height="24" viewBox="0 0 125 24" fill="none" xmlns="http://www.w3.org/2000/svg">
<path d="M9.42863 10.6895C9.41185 10.7398 9.40625 10.7902 9.40625 10.8405V12.8548C9.40625 13.045 9.50696 13.2184 9.66362 13.308L11.3813 14.3151C11.4652 14.3654 11.5547 14.3878 11.6499 14.3822V11.9819L9.42863 10.6839V10.6895Z" fill="white"/>
<path d="M9.66362 14.8802C9.59648 14.841 9.54053 14.785 9.50137 14.7291C9.43982 14.813 9.40625 14.9193 9.40625 15.0312V19.138C9.40625 19.3282 9.50696 19.5017 9.66362 19.5912L11.3813 20.5983C11.4652 20.6486 11.5547 20.671 11.6499 20.6654V15.9544C11.5603 15.9544 11.4652 15.932 11.3813 15.8873L9.66362 14.8802Z" fill="white"/>
<path d="M11.6499 14.3878C11.7338 14.3878 11.8233 14.3654 11.9016 14.3207L13.6193 13.3135C13.7816 13.2184 13.8767 13.045 13.8767 12.8603V10.8461C13.8767 10.7958 13.8711 10.751 13.8543 10.7063L11.6443 11.9931V14.3934L11.6499 14.3878Z" fill="#DCDBDB"/>
<path d="M11.9015 20.6039L13.6192 19.5968C13.7814 19.5017 13.8766 19.3282 13.8766 19.1436V15.0368C13.8766 14.9249 13.843 14.8186 13.7814 14.7347C13.7367 14.7962 13.6807 14.8466 13.6192 14.8858L11.9015 15.8929C11.8232 15.9376 11.7393 15.96 11.6497 15.96V20.671C11.7337 20.671 11.8232 20.6486 11.9015 20.6039Z" fill="#DCDBDB"/>
<path d="M13.8594 10.6951C13.8258 10.5664 13.7419 10.4545 13.6188 10.3817L11.9011 9.37464C11.8228 9.32988 11.7389 9.3075 11.6493 9.3075C11.5598 9.3075 11.4647 9.32988 11.3808 9.37464L9.6631 10.3817C9.5456 10.4489 9.4622 10.5608 9.42863 10.6895L11.6497 11.9875L13.8594 10.7007V10.6951Z" fill="#E2E2E2"/>
<path d="M10.5548 0.763632L10.5553 0.763341C11.1528 0.412219 11.8912 0.412219 12.4886 0.763342L12.4894 0.763784L20.622 5.52433C20.6221 5.52439 20.6222 5.52446 20.6223 5.52453C21.2228 5.87757 21.5986 6.53318 21.5986 7.23571V16.7643C21.5986 17.477 21.2266 18.1286 20.6264 18.4731L20.6264 18.4731L20.6227 18.4752L12.4894 23.2362L12.4886 23.2367C11.8912 23.5878 11.1528 23.5878 10.5553 23.2367L10.5543 23.2361L2.42197 18.4823C2.4219 18.4822 2.42184 18.4822 2.42178 18.4822C1.82126 18.1291 1.44531 17.4735 1.44531 16.7709V7.24232C1.44531 6.52958 1.81733 5.87798 2.4175 5.53353L2.41751 5.53355L2.42147 5.53123L10.5548 0.763632Z" stroke="url(#paint0_linear_2435_14422)"/>
<path d="M35.9396 13.872H33.0116V18H31.4436V6.432H35.9396C38.2116 6.432 39.6676 7.92 39.6676 10.144C39.6676 12.304 38.1956 13.872 35.9396 13.872ZM35.6676 7.84H33.0116V12.464H35.6036C37.1556 12.464 38.0196 11.552 38.0196 10.128C38.0196 8.672 37.1396 7.84 35.6676 7.84ZM45.6676 10.112V11.488H44.9956C43.5716 11.488 42.6916 12.352 42.6916 13.856V18H41.1876V10.192H42.5956L42.6916 11.376C43.0116 10.56 43.7956 10.016 44.8676 10.016C45.1396 10.016 45.3636 10.048 45.6676 10.112ZM46.285 14.08C46.285 11.664 48.013 9.968 50.365 9.968C52.701 9.968 54.429 11.664 54.429 14.08C54.429 16.496 52.701 18.192 50.365 18.192C48.013 18.192 46.285 16.496 46.285 14.08ZM47.805 14.08C47.805 15.712 48.845 16.848 50.365 16.848C51.869 16.848 52.925 15.712 52.925 14.08C52.925 12.448 51.869 11.312 50.365 11.312C48.845 11.312 47.805 12.448 47.805 14.08ZM55.5819 14.096C55.5819 11.648 57.1339 9.952 59.4219 9.952C61.3899 9.952 62.7659 11.072 63.0379 12.816H61.5339C61.2779 11.824 60.4779 11.296 59.4699 11.296C58.0459 11.296 57.0699 12.384 57.0699 14.08C57.0699 15.76 57.9819 16.848 59.4059 16.848C60.4779 16.848 61.2779 16.288 61.5499 15.36H63.0539C62.7499 17.056 61.2939 18.192 59.4059 18.192C57.1019 18.192 55.5819 16.56 55.5819 14.096ZM70.0487 10.176H71.5367V18H70.1927L70.0327 16.816C69.5847 17.632 68.5447 18.192 67.3927 18.192C65.5687 18.192 64.5447 16.96 64.5447 15.04V10.176H66.0487V14.544C66.0487 16.224 66.7687 16.864 67.9207 16.864C69.2967 16.864 70.0487 15.984 70.0487 14.304V10.176ZM78.1989 10.112V11.488H77.5269C76.1029 11.488 75.2229 12.352 75.2229 13.856V18H73.7189V10.192H75.1269L75.2229 11.376C75.5429 10.56 76.3269 10.016 77.3989 10.016C77.6709 10.016 77.8949 10.048 78.1989 10.112ZM82.7042 18.192C80.4002 18.192 78.8162 16.528 78.8162 14.096C78.8162 11.648 80.3682 9.952 82.6402 9.952C84.8642 9.952 86.3202 11.488 86.3202 13.808V14.368L80.2722 14.384C80.3842 16.032 81.2482 16.944 82.7362 16.944C83.9042 16.944 84.6722 16.464 84.9282 15.568H86.3362C85.9522 17.248 84.6402 18.192 82.7042 18.192ZM82.6402 11.216C81.3282 11.216 80.4962 12 80.3042 13.376H84.8162C84.8162 12.08 83.9682 11.216 82.6402 11.216ZM89.5041 18H88.0001V10.176H89.3441L89.4881 11.2C89.8881 10.464 90.7201 9.952 91.8241 9.952C93.0401 9.952 93.9041 10.56 94.3041 11.536C94.6721 10.56 95.6161 9.952 96.8321 9.952C98.6241 9.952 99.7121 11.072 99.7121 12.88V18H98.2401V13.248C98.2401 12.016 97.5521 11.312 96.4961 11.312C95.3601 11.312 94.6081 12.112 94.6081 13.36V18H93.1201V13.232C93.1201 12 92.4481 11.328 91.3921 11.328C90.2561 11.328 89.5041 12.112 89.5041 13.36V18ZM105.173 18.192C102.869 18.192 101.285 16.528 101.285 14.096C101.285 11.648 102.837 9.952 105.109 9.952C107.333 9.952 108.789 11.488 108.789 13.808V14.368L102.741 14.384C102.853 16.032 103.717 16.944 105.205 16.944C106.373 16.944 107.141 16.464 107.397 15.568H108.805C108.421 17.248 107.109 18.192 105.173 18.192ZM105.109 11.216C103.797 11.216 102.965 12 102.773 13.376H107.285C107.285 12.08 106.437 11.216 105.109 11.216ZM111.973 18H110.469V10.176H111.829L111.989 11.376C112.485 10.48 113.477 9.952 114.581 9.952C116.645 9.952 117.589 11.216 117.589 13.216V18H116.085V13.552C116.085 11.968 115.349 11.328 114.197 11.328C112.789 11.328 111.973 12.336 111.973 13.856V18ZM121.88 18H120.376V11.44H118.84V10.176H120.376V7.728H121.88V10.176H123.416V11.44H121.88V18Z" fill="white"/>
<defs>
<linearGradient id="paint0_linear_2435_14422" x1="11.522" y1="0" x2="11.522" y2="24" gradientUnits="userSpaceOnUse">
<stop stop-color="#6BD425"/>
<stop offset="1" stop-color="#45F0DF"/>
</linearGradient>
</defs>
</svg>
