<svg width="101" height="24" viewBox="0 0 101 24" fill="none" xmlns="http://www.w3.org/2000/svg">
<path d="M9.42863 10.6895C9.41185 10.7398 9.40625 10.7902 9.40625 10.8405V12.8548C9.40625 13.045 9.50696 13.2184 9.66362 13.308L11.3813 14.3151C11.4652 14.3654 11.5547 14.3878 11.6499 14.3822V11.9819L9.42863 10.6839V10.6895Z" fill="white"/>
<path d="M9.66362 14.8802C9.59648 14.841 9.54053 14.785 9.50137 14.7291C9.43982 14.813 9.40625 14.9193 9.40625 15.0312V19.138C9.40625 19.3282 9.50696 19.5017 9.66362 19.5912L11.3813 20.5983C11.4652 20.6486 11.5547 20.671 11.6499 20.6654V15.9544C11.5603 15.9544 11.4652 15.932 11.3813 15.8873L9.66362 14.8802Z" fill="white"/>
<path d="M11.6499 14.3878C11.7338 14.3878 11.8233 14.3654 11.9016 14.3207L13.6193 13.3135C13.7816 13.2184 13.8767 13.045 13.8767 12.8603V10.8461C13.8767 10.7958 13.8711 10.751 13.8543 10.7063L11.6443 11.9931V14.3934L11.6499 14.3878Z" fill="#DCDBDB"/>
<path d="M11.9015 20.6039L13.6192 19.5968C13.7814 19.5017 13.8766 19.3282 13.8766 19.1436V15.0368C13.8766 14.9249 13.843 14.8186 13.7814 14.7347C13.7367 14.7962 13.6807 14.8466 13.6192 14.8858L11.9015 15.8929C11.8232 15.9376 11.7393 15.96 11.6497 15.96V20.671C11.7337 20.671 11.8232 20.6486 11.9015 20.6039Z" fill="#DCDBDB"/>
<path d="M13.8594 10.6951C13.8258 10.5664 13.7419 10.4545 13.6188 10.3817L11.9011 9.37464C11.8228 9.32988 11.7389 9.3075 11.6493 9.3075C11.5598 9.3075 11.4647 9.32988 11.3808 9.37464L9.6631 10.3817C9.5456 10.4489 9.4622 10.5608 9.42863 10.6895L11.6497 11.9875L13.8594 10.7007V10.6951Z" fill="#E2E2E2"/>
<path d="M10.5548 0.763632L10.5553 0.763341C11.1528 0.412219 11.8912 0.412219 12.4886 0.763342L12.4894 0.763784L20.622 5.52433C20.6221 5.52439 20.6222 5.52446 20.6223 5.52453C21.2228 5.87757 21.5986 6.53318 21.5986 7.23571V16.7643C21.5986 17.477 21.2266 18.1286 20.6264 18.4731L20.6264 18.4731L20.6227 18.4752L12.4894 23.2362L12.4886 23.2367C11.8912 23.5878 11.1528 23.5878 10.5553 23.2367L10.5543 23.2361L2.42197 18.4823C2.4219 18.4822 2.42184 18.4822 2.42178 18.4822C1.82126 18.1291 1.44531 17.4735 1.44531 16.7709V7.24232C1.44531 6.52958 1.81733 5.87798 2.4175 5.53353L2.41751 5.53355L2.42147 5.53123L10.5548 0.763632Z" stroke="url(#paint0_linear_2435_14417)"/>
<path d="M30.3236 7.872V6.432H38.8516V7.872H35.3796V18H33.8116V7.872H30.3236ZM43.6989 10.112V11.488H43.0269C41.6029 11.488 40.7229 12.352 40.7229 13.856V18H39.2189V10.192H40.6269L40.7229 11.376C41.0429 10.56 41.8269 10.016 42.8989 10.016C43.1709 10.016 43.3949 10.048 43.6989 10.112ZM47.085 18.192C45.405 18.192 44.413 17.248 44.413 15.824C44.413 14.384 45.485 13.488 47.325 13.344L49.789 13.152V12.928C49.789 11.616 49.005 11.152 47.949 11.152C46.685 11.152 45.965 11.712 45.965 12.656H44.653C44.653 11.024 45.997 9.952 48.013 9.952C49.949 9.952 51.261 10.976 51.261 13.088V18H49.981L49.821 16.736C49.421 17.632 48.349 18.192 47.085 18.192ZM47.517 17.024C48.941 17.024 49.805 16.096 49.805 14.624V14.208L47.805 14.368C46.477 14.496 45.933 15.008 45.933 15.776C45.933 16.608 46.541 17.024 47.517 17.024ZM54.8479 18H53.3439V10.176H54.7039L54.8639 11.376C55.3599 10.48 56.3519 9.952 57.4559 9.952C59.5199 9.952 60.4639 11.216 60.4639 13.216V18H58.9599V13.552C58.9599 11.968 58.2239 11.328 57.0719 11.328C55.6639 11.328 54.8479 12.336 54.8479 13.856V18ZM61.8132 15.728H63.2532C63.2532 16.528 63.8612 17.008 64.8532 17.008C65.9092 17.008 66.5172 16.576 66.5172 15.856C66.5172 15.328 66.2612 15.008 65.4452 14.8L64.0692 14.48C62.6772 14.144 62.0212 13.456 62.0212 12.304C62.0212 10.864 63.2372 9.952 64.9652 9.952C66.6772 9.952 67.7972 10.912 67.8292 12.4H66.3892C66.3572 11.616 65.8292 11.12 64.9172 11.12C63.9732 11.12 63.4452 11.536 63.4452 12.256C63.4452 12.784 63.8292 13.136 64.5972 13.328L65.9732 13.664C67.3012 13.984 67.9572 14.592 67.9572 15.76C67.9572 17.248 66.6772 18.192 64.8212 18.192C62.9812 18.192 61.8132 17.216 61.8132 15.728ZM71.1611 18H69.6571V6.224H71.1611V18ZM72.8631 14.08C72.8631 11.664 74.5911 9.968 76.9431 9.968C79.2791 9.968 81.0071 11.664 81.0071 14.08C81.0071 16.496 79.2791 18.192 76.9431 18.192C74.5911 18.192 72.8631 16.496 72.8631 14.08ZM74.3831 14.08C74.3831 15.712 75.4231 16.848 76.9431 16.848C78.4471 16.848 79.5031 15.712 79.5031 14.08C79.5031 12.448 78.4471 11.312 76.9431 11.312C75.4231 11.312 74.3831 12.448 74.3831 14.08ZM84.96 18.192C83.28 18.192 82.288 17.248 82.288 15.824C82.288 14.384 83.36 13.488 85.2 13.344L87.664 13.152V12.928C87.664 11.616 86.88 11.152 85.824 11.152C84.56 11.152 83.84 11.712 83.84 12.656H82.528C82.528 11.024 83.872 9.952 85.888 9.952C87.824 9.952 89.136 10.976 89.136 13.088V18H87.856L87.696 16.736C87.296 17.632 86.224 18.192 84.96 18.192ZM85.392 17.024C86.816 17.024 87.68 16.096 87.68 14.624V14.208L85.68 14.368C84.352 14.496 83.808 15.008 83.808 15.776C83.808 16.608 84.416 17.024 85.392 17.024ZM94.3549 18.192C92.0829 18.192 90.7069 16.496 90.7069 14.112C90.7069 11.712 92.0989 9.952 94.4189 9.952C95.6189 9.952 96.6269 10.48 97.1549 11.44V6.224H98.6429V18H97.2989L97.1709 16.576C96.6589 17.648 95.6029 18.192 94.3549 18.192ZM94.6589 16.832C96.1949 16.832 97.1389 15.696 97.1389 14.064C97.1389 12.464 96.1949 11.312 94.6589 11.312C93.1229 11.312 92.2269 12.464 92.2269 14.064C92.2269 15.68 93.1229 16.832 94.6589 16.832Z" fill="white"/>
<defs>
<linearGradient id="paint0_linear_2435_14417" x1="11.522" y1="0" x2="11.522" y2="24" gradientUnits="userSpaceOnUse">
<stop stop-color="#6DFB1D"/>
<stop offset="1" stop-color="#FFFD98"/>
</linearGradient>
</defs>
</svg>
