<svg width="64" height="24" viewBox="0 0 64 24" fill="none" xmlns="http://www.w3.org/2000/svg">
<path d="M9.42863 10.6895C9.41185 10.7398 9.40625 10.7902 9.40625 10.8405V12.8548C9.40625 13.045 9.50696 13.2184 9.66362 13.308L11.3813 14.3151C11.4652 14.3654 11.5547 14.3878 11.6499 14.3822V11.9819L9.42863 10.6839V10.6895Z" fill="white"/>
<path d="M9.66362 14.8802C9.59648 14.841 9.54053 14.785 9.50137 14.7291C9.43982 14.813 9.40625 14.9193 9.40625 15.0312V19.138C9.40625 19.3282 9.50696 19.5017 9.66362 19.5912L11.3813 20.5983C11.4652 20.6486 11.5547 20.671 11.6499 20.6654V15.9544C11.5603 15.9544 11.4652 15.932 11.3813 15.8873L9.66362 14.8802Z" fill="white"/>
<path d="M11.6499 14.3878C11.7338 14.3878 11.8233 14.3654 11.9016 14.3207L13.6193 13.3135C13.7816 13.2184 13.8767 13.045 13.8767 12.8603V10.8461C13.8767 10.7958 13.8711 10.751 13.8543 10.7063L11.6443 11.9931V14.3934L11.6499 14.3878Z" fill="#DCDBDB"/>
<path d="M11.9015 20.6039L13.6192 19.5968C13.7814 19.5017 13.8766 19.3282 13.8766 19.1436V15.0368C13.8766 14.9249 13.843 14.8186 13.7814 14.7347C13.7367 14.7962 13.6807 14.8466 13.6192 14.8858L11.9015 15.8929C11.8232 15.9376 11.7393 15.96 11.6497 15.96V20.671C11.7337 20.671 11.8232 20.6486 11.9015 20.6039Z" fill="#DCDBDB"/>
<path d="M13.8594 10.6951C13.8258 10.5664 13.7419 10.4545 13.6188 10.3817L11.9011 9.37464C11.8228 9.32988 11.7389 9.3075 11.6493 9.3075C11.5598 9.3075 11.4647 9.32988 11.3808 9.37464L9.6631 10.3817C9.5456 10.4489 9.4622 10.5608 9.42863 10.6895L11.6497 11.9875L13.8594 10.7007V10.6951Z" fill="#E2E2E2"/>
<path d="M10.5548 0.763632L10.5553 0.763341C11.1528 0.412219 11.8912 0.412219 12.4886 0.763342L12.4894 0.763784L20.622 5.52433C20.6221 5.52439 20.6222 5.52446 20.6223 5.52453C21.2228 5.87757 21.5986 6.53318 21.5986 7.23571V16.7643C21.5986 17.477 21.2266 18.1286 20.6264 18.4731L20.6264 18.4731L20.6227 18.4752L12.4894 23.2362L12.4886 23.2367C11.8912 23.5878 11.1528 23.5878 10.5553 23.2367L10.5543 23.2361L2.42197 18.4823C2.4219 18.4822 2.42184 18.4822 2.42178 18.4822C1.82126 18.1291 1.44531 17.4735 1.44531 16.7709V7.24232C1.44531 6.52958 1.81733 5.87798 2.4175 5.53353L2.41751 5.53355L2.42147 5.53123L10.5548 0.763632Z" stroke="url(#paint0_linear_2435_14372)"/>
<path d="M34.1796 13.296L30.2596 6.432H32.0196L34.5956 11.056C34.7556 11.328 34.8516 11.552 34.9796 11.824C35.1236 11.536 35.1556 11.44 35.3636 11.056L37.9236 6.432H39.6356L35.7476 13.296V18H34.1796V13.296ZM42.6827 18H41.1467V6.432H42.6827L46.6667 16.16L50.6507 6.432H52.2187V18H50.6827V13.424C50.6827 11.264 50.6987 10.48 50.7787 9.664L47.4027 18H45.9307L42.5707 9.696C42.6507 10.256 42.6827 11.44 42.6827 13.056V18ZM54.1154 9.552C54.1154 7.568 55.7154 6.224 58.0994 6.224C60.3074 6.224 61.7314 7.456 61.8594 9.456H60.2754C60.1954 8.304 59.3794 7.632 58.0834 7.632C56.6274 7.632 55.6834 8.368 55.6834 9.504C55.6834 10.432 56.2114 10.992 57.2994 11.248L59.2034 11.696C61.0914 12.128 62.0514 13.152 62.0514 14.784C62.0514 16.864 60.4354 18.192 57.9714 18.192C55.6194 18.192 54.0514 16.96 53.9554 14.976H55.5554C55.5874 16.08 56.5154 16.784 57.9714 16.784C59.5074 16.784 60.4834 16.064 60.4834 14.912C60.4834 14 59.9874 13.424 58.8834 13.168L56.9794 12.736C55.0914 12.304 54.1154 11.216 54.1154 9.552Z" fill="white"/>
<defs>
<linearGradient id="paint0_linear_2435_14372" x1="11.522" y1="0" x2="11.522" y2="24" gradientUnits="userSpaceOnUse">
<stop stop-color="#294BFF"/>
<stop offset="1" stop-color="#25DCE8"/>
</linearGradient>
</defs>
</svg>
